<?xml version="1.0" encoding="utf-8"?>
<!-- Generator: Adobe Illustrator 19.0.0, SVG Export Plug-In . SVG Version: 6.00 Build 0)  -->
<svg version="1.1" id="图层_1" xmlns="http://www.w3.org/2000/svg" xmlns:xlink="http://www.w3.org/1999/xlink" x="0px" y="0px"
	 width="379px" height="152px" viewBox="-108 344.9 379 152" style="enable-background:new -108 344.9 379 152;"
	 xml:space="preserve">
<style type="text/css">
	.st0{fill:#00B1FF;}
	.st1{enable-background:new    ;}
	.st2{fill:none;stroke:#00B1FF;stroke-width:0.5;}
	.st3{fill:none;stroke:#00B1FF;stroke-width:1.3913;stroke-linecap:round;}
	.st4{opacity:0.5;fill:none;stroke:#00B1FF;stroke-width:0.9275;enable-background:new    ;}
	.st5{fill:none;stroke:#00B1FF;stroke-width:1.2613;stroke-linecap:round;stroke-linejoin:round;}
	
		.st6{opacity:0.5;fill:none;stroke:#00B1FF;stroke-width:1.2613;stroke-linecap:round;stroke-linejoin:round;enable-background:new    ;}
	.st7{opacity:0.5;fill:none;stroke:#00B1FF;stroke-width:1.2613;stroke-linejoin:round;enable-background:new    ;}
	.st8{fill:none;stroke:#00B1FF;stroke-width:1.331;stroke-linecap:round;}
	.st9{opacity:0.5;fill:none;stroke:#00B1FF;stroke-width:1.331;enable-background:new    ;}
	.st10{fill:url(#合并形状_3_);}
	.st11{fill:url(#合并形状_4_);}
	.st12{fill:#A5A3A3;}
	.st13{filter:url(#filter-5);}
	.st14{fill:url(#SVGID_1_);stroke:#F6DFB3;stroke-opacity:0.8;}
	.st15{opacity:0.9;}
	.st16{filter:url(#filter-7);}
	.st17{fill:#FFEAC0;}
	.st18{filter:url(#filter-9);}
	.st19{filter:url(#filter-12);}
	.st20{fill:url(#SVGID_2_);stroke:#F2BABC;stroke-opacity:0.8;}
	.st21{filter:url(#filter-14);}
	.st22{fill:#F9C9CC;}
	.st23{filter:url(#filter-16);}
	.st24{filter:url(#filter-19);}
	.st25{fill:url(#SVGID_3_);stroke:#E5E5E5;stroke-opacity:0.8;}
	.st26{filter:url(#filter-21);}
	.st27{fill:#E1E1E1;}
	.st28{filter:url(#filter-23);}
	.st29{filter:url(#filter-25);}
	.st30{fill:url(#SVGID_4_);stroke:#E5E5E5;stroke-opacity:0.8;}
	.st31{filter:url(#filter-27);}
	.st32{fill:#D5D5D4;}
	.st33{filter:url(#filter-29);}
	.st34{fill:#D8D7D6;}
	.st35{filter:url(#filter-31);}
	.st36{fill:url(#SVGID_5_);stroke:#E5E5E5;stroke-opacity:0.8;}
	.st37{filter:url(#filter-33);}
	.st38{fill:none;stroke:#CDCCCB;stroke-width:1.7;}
	.st39{filter:url(#filter-35);}
	.st40{fill:url(#SVGID_6_);stroke:#F2BABC;stroke-opacity:0.8;}
	.st41{filter:url(#filter-37);}
	.st42{filter:url(#filter-39);}
	.st43{fill:none;}
	.st44{opacity:0.1;enable-background:new    ;}
	.st45{opacity:0.7;fill:#FFFFFF;enable-background:new    ;}
	.st46{opacity:0.3;}
	.st47{filter:url(#filter-41);}
	.st48{opacity:0.9;fill:#FFFFFF;enable-background:new    ;}
	.st49{filter:url(#filter-43);}
	.st50{fill:#CA141D;}
	.st51{fill:url(#path-45_3_);}
	.st52{fill:url(#Light-icon_1_);}
	.st53{opacity:0.2;enable-background:new    ;}
	.st54{fill:#FFFFFF;}
	.st55{opacity:0.3;enable-background:new    ;}
</style>
<filter  width="192.8%" height="159.6%" filterUnits="objectBoundingBox" x="-45.1%" id="filter-9" y="-16.3%">
	<feMorphology  in="SourceAlpha" radius="0.2" result="shadowSpreadOuter1" operator="dilate"></feMorphology>
	<feOffset  in="shadowSpreadOuter1" dx="0" result="shadowOffsetOuter1" dy="1"></feOffset>
	<feGaussianBlur  in="shadowOffsetOuter1" result="shadowBlurOuter1" stdDeviation="0.5"></feGaussianBlur>
	<feComposite  in="shadowBlurOuter1" in2="SourceAlpha" result="shadowBlurOuter1" operator="out"></feComposite>
	
		<feColorMatrix  type="matrix" in="shadowBlurOuter1" values="0 0 0 0 0.651556194   0 0 0 0 0.37275359   0 0 0 0 0.128335565  0 0 0 0.125509511 0">
		</feColorMatrix>
</filter>
<filter  width="149.3%" height="152.6%" filterUnits="objectBoundingBox" x="-24.7%" id="filter-7" y="-13.2%">
	<feOffset  in="SourceAlpha" dx="0" result="shadowOffsetOuter1" dy="1"></feOffset>
	<feGaussianBlur  in="shadowOffsetOuter1" result="shadowBlurOuter1" stdDeviation="0.5"></feGaussianBlur>
	
		<feColorMatrix  type="matrix" in="shadowBlurOuter1" values="0 0 0 0 0.651556194   0 0 0 0 0.37275359   0 0 0 0 0.128335565  0 0 0 0.125509511 0">
		</feColorMatrix>
</filter>
<filter  width="116.7%" height="116.7%" filterUnits="objectBoundingBox" x="-8.4%" id="filter-5" y="-3.4%">
	<feOffset  in="SourceAlpha" dx="0" result="shadowOffsetOuter1" dy="1"></feOffset>
	<feGaussianBlur  in="shadowOffsetOuter1" result="shadowBlurOuter1" stdDeviation="0.5"></feGaussianBlur>
	<feComposite  in="shadowBlurOuter1" in2="SourceAlpha" result="shadowBlurOuter1" operator="out"></feComposite>
	<feColorMatrix  type="matrix" in="shadowBlurOuter1" values="0 0 0 0 0   0 0 0 0 0   0 0 0 0 0  0 0 0 0.1 0"></feColorMatrix>
</filter>
<filter  width="167.9%" height="167.9%" filterUnits="objectBoundingBox" x="-33.9%" id="filter-43" y="-25.0%">
	<feOffset  in="SourceAlpha" dx="0" result="shadowOffsetOuter1" dy="5"></feOffset>
	<feGaussianBlur  in="shadowOffsetOuter1" result="shadowBlurOuter1" stdDeviation="5.5"></feGaussianBlur>
	<feColorMatrix  type="matrix" in="shadowBlurOuter1" values="0 0 0 0 0   0 0 0 0 0   0 0 0 0 0  0 0 0 0.05 0"></feColorMatrix>
</filter>
<filter  width="167.9%" height="167.9%" filterUnits="objectBoundingBox" x="-33.9%" id="filter-41" y="-25.0%">
	<feOffset  in="SourceAlpha" dx="0" result="shadowOffsetOuter1" dy="5"></feOffset>
	<feGaussianBlur  in="shadowOffsetOuter1" result="shadowBlurOuter1" stdDeviation="5.5"></feGaussianBlur>
	<feColorMatrix  type="matrix" in="shadowBlurOuter1" values="0 0 0 0 0   0 0 0 0 0   0 0 0 0 0  0 0 0 0.05 0"></feColorMatrix>
</filter>
<filter  width="174.9%" height="159.1%" filterUnits="objectBoundingBox" x="-35.0%" id="filter-39" y="-16.1%">
	<feMorphology  in="SourceAlpha" radius="0.2" result="shadowSpreadOuter1" operator="dilate"></feMorphology>
	<feOffset  in="shadowSpreadOuter1" dx="0" result="shadowOffsetOuter1" dy="1"></feOffset>
	<feGaussianBlur  in="shadowOffsetOuter1" result="shadowBlurOuter1" stdDeviation="0.5"></feGaussianBlur>
	<feComposite  in="shadowBlurOuter1" in2="SourceAlpha" result="shadowBlurOuter1" operator="out"></feComposite>
	
		<feColorMatrix  type="matrix" in="shadowBlurOuter1" values="0 0 0 0 0.651556194   0 0 0 0 0.37275359   0 0 0 0 0.128335565  0 0 0 0.125509511 0">
		</feColorMatrix>
</filter>
<filter  width="149.3%" height="152.6%" filterUnits="objectBoundingBox" x="-24.7%" id="filter-37" y="-13.2%">
	<feOffset  in="SourceAlpha" dx="0" result="shadowOffsetOuter1" dy="1"></feOffset>
	<feGaussianBlur  in="shadowOffsetOuter1" result="shadowBlurOuter1" stdDeviation="0.5"></feGaussianBlur>
	
		<feColorMatrix  type="matrix" in="shadowBlurOuter1" values="0 0 0 0 0.651556194   0 0 0 0 0.37275359   0 0 0 0 0.128335565  0 0 0 0.125509511 0">
		</feColorMatrix>
</filter>
<filter  width="116.7%" height="116.7%" filterUnits="objectBoundingBox" x="-8.4%" id="filter-35" y="-3.4%">
	<feOffset  in="SourceAlpha" dx="0" result="shadowOffsetOuter1" dy="1"></feOffset>
	<feGaussianBlur  in="shadowOffsetOuter1" result="shadowBlurOuter1" stdDeviation="0.5"></feGaussianBlur>
	<feComposite  in="shadowBlurOuter1" in2="SourceAlpha" result="shadowBlurOuter1" operator="out"></feComposite>
	<feColorMatrix  type="matrix" in="shadowBlurOuter1" values="0 0 0 0 0   0 0 0 0 0   0 0 0 0 0  0 0 0 0.1 0"></feColorMatrix>
</filter>
<filter  width="149.3%" height="152.6%" filterUnits="objectBoundingBox" x="-24.7%" id="filter-33" y="-13.2%">
	<feOffset  in="SourceAlpha" dx="0" result="shadowOffsetOuter1" dy="1"></feOffset>
	<feGaussianBlur  in="shadowOffsetOuter1" result="shadowBlurOuter1" stdDeviation="0.5"></feGaussianBlur>
	
		<feColorMatrix  type="matrix" in="shadowBlurOuter1" values="0 0 0 0 0.651556194   0 0 0 0 0.37275359   0 0 0 0 0.128335565  0 0 0 0.125509511 0">
		</feColorMatrix>
</filter>
<filter  width="116.7%" height="116.7%" filterUnits="objectBoundingBox" x="-8.4%" id="filter-31" y="-3.4%">
	<feOffset  in="SourceAlpha" dx="0" result="shadowOffsetOuter1" dy="1"></feOffset>
	<feGaussianBlur  in="shadowOffsetOuter1" result="shadowBlurOuter1" stdDeviation="0.5"></feGaussianBlur>
	<feComposite  in="shadowBlurOuter1" in2="SourceAlpha" result="shadowBlurOuter1" operator="out"></feComposite>
	<feColorMatrix  type="matrix" in="shadowBlurOuter1" values="0 0 0 0 0   0 0 0 0 0   0 0 0 0 0  0 0 0 0.1 0"></feColorMatrix>
</filter>
<filter  width="446.5%" height="161.6%" filterUnits="objectBoundingBox" x="-173.2%" id="filter-29" y="-16.8%">
	<feMorphology  in="SourceAlpha" radius="0.2" result="shadowSpreadOuter1" operator="dilate"></feMorphology>
	<feOffset  in="shadowSpreadOuter1" dx="0" result="shadowOffsetOuter1" dy="1"></feOffset>
	<feGaussianBlur  in="shadowOffsetOuter1" result="shadowBlurOuter1" stdDeviation="0.5"></feGaussianBlur>
	<feComposite  in="shadowBlurOuter1" in2="SourceAlpha" result="shadowBlurOuter1" operator="out"></feComposite>
	
		<feColorMatrix  type="matrix" in="shadowBlurOuter1" values="0 0 0 0 0.651556194   0 0 0 0 0.37275359   0 0 0 0 0.128335565  0 0 0 0.125509511 0">
		</feColorMatrix>
</filter>
<filter  width="149.3%" height="152.6%" filterUnits="objectBoundingBox" x="-24.7%" id="filter-27" y="-13.2%">
	<feOffset  in="SourceAlpha" dx="0" result="shadowOffsetOuter1" dy="1"></feOffset>
	<feGaussianBlur  in="shadowOffsetOuter1" result="shadowBlurOuter1" stdDeviation="0.5"></feGaussianBlur>
	
		<feColorMatrix  type="matrix" in="shadowBlurOuter1" values="0 0 0 0 0.651556194   0 0 0 0 0.37275359   0 0 0 0 0.128335565  0 0 0 0.125509511 0">
		</feColorMatrix>
</filter>
<filter  width="116.7%" height="116.7%" filterUnits="objectBoundingBox" x="-8.4%" id="filter-25" y="-3.4%">
	<feOffset  in="SourceAlpha" dx="0" result="shadowOffsetOuter1" dy="1"></feOffset>
	<feGaussianBlur  in="shadowOffsetOuter1" result="shadowBlurOuter1" stdDeviation="0.5"></feGaussianBlur>
	<feComposite  in="shadowBlurOuter1" in2="SourceAlpha" result="shadowBlurOuter1" operator="out"></feComposite>
	<feColorMatrix  type="matrix" in="shadowBlurOuter1" values="0 0 0 0 0   0 0 0 0 0   0 0 0 0 0  0 0 0 0.1 0"></feColorMatrix>
</filter>
<filter  width="191.2%" height="159.6%" filterUnits="objectBoundingBox" x="-44.5%" id="filter-23" y="-16.3%">
	<feMorphology  in="SourceAlpha" radius="0.2" result="shadowSpreadOuter1" operator="dilate"></feMorphology>
	<feOffset  in="shadowSpreadOuter1" dx="0" result="shadowOffsetOuter1" dy="1"></feOffset>
	<feGaussianBlur  in="shadowOffsetOuter1" result="shadowBlurOuter1" stdDeviation="0.5"></feGaussianBlur>
	<feComposite  in="shadowBlurOuter1" in2="SourceAlpha" result="shadowBlurOuter1" operator="out"></feComposite>
	
		<feColorMatrix  type="matrix" in="shadowBlurOuter1" values="0 0 0 0 0.651556194   0 0 0 0 0.37275359   0 0 0 0 0.128335565  0 0 0 0.125509511 0">
		</feColorMatrix>
</filter>
<filter  width="149.3%" height="152.6%" filterUnits="objectBoundingBox" x="-24.7%" id="filter-21" y="-13.2%">
	<feOffset  in="SourceAlpha" dx="0" result="shadowOffsetOuter1" dy="1"></feOffset>
	<feGaussianBlur  in="shadowOffsetOuter1" result="shadowBlurOuter1" stdDeviation="0.5"></feGaussianBlur>
	
		<feColorMatrix  type="matrix" in="shadowBlurOuter1" values="0 0 0 0 0.651556194   0 0 0 0 0.37275359   0 0 0 0 0.128335565  0 0 0 0.125509511 0">
		</feColorMatrix>
</filter>
<filter  width="116.7%" height="116.7%" filterUnits="objectBoundingBox" x="-8.4%" id="filter-19" y="-3.4%">
	<feOffset  in="SourceAlpha" dx="0" result="shadowOffsetOuter1" dy="1"></feOffset>
	<feGaussianBlur  in="shadowOffsetOuter1" result="shadowBlurOuter1" stdDeviation="0.5"></feGaussianBlur>
	<feComposite  in="shadowBlurOuter1" in2="SourceAlpha" result="shadowBlurOuter1" operator="out"></feComposite>
	<feColorMatrix  type="matrix" in="shadowBlurOuter1" values="0 0 0 0 0   0 0 0 0 0   0 0 0 0 0  0 0 0 0.1 0"></feColorMatrix>
</filter>
<filter  width="177.1%" height="157.1%" filterUnits="objectBoundingBox" x="-37.7%" id="filter-16" y="-15.6%">
	<feMorphology  in="SourceAlpha" radius="0.2" result="shadowSpreadOuter1" operator="dilate"></feMorphology>
	<feOffset  in="shadowSpreadOuter1" dx="0" result="shadowOffsetOuter1" dy="1"></feOffset>
	<feGaussianBlur  in="shadowOffsetOuter1" result="shadowBlurOuter1" stdDeviation="0.5"></feGaussianBlur>
	<feComposite  in="shadowBlurOuter1" in2="SourceAlpha" result="shadowBlurOuter1" operator="out"></feComposite>
	
		<feColorMatrix  type="matrix" in="shadowBlurOuter1" values="0 0 0 0 0.651556194   0 0 0 0 0.37275359   0 0 0 0 0.128335565  0 0 0 0.125509511 0">
		</feColorMatrix>
</filter>
<filter  width="149.3%" height="152.6%" filterUnits="objectBoundingBox" x="-24.7%" id="filter-14" y="-13.2%">
	<feOffset  in="SourceAlpha" dx="0" result="shadowOffsetOuter1" dy="1"></feOffset>
	<feGaussianBlur  in="shadowOffsetOuter1" result="shadowBlurOuter1" stdDeviation="0.5"></feGaussianBlur>
	
		<feColorMatrix  type="matrix" in="shadowBlurOuter1" values="0 0 0 0 0.651556194   0 0 0 0 0.37275359   0 0 0 0 0.128335565  0 0 0 0.125509511 0">
		</feColorMatrix>
</filter>
<filter  width="116.7%" height="116.7%" filterUnits="objectBoundingBox" x="-8.4%" id="filter-12" y="-3.4%">
	<feOffset  in="SourceAlpha" dx="0" result="shadowOffsetOuter1" dy="1"></feOffset>
	<feGaussianBlur  in="shadowOffsetOuter1" result="shadowBlurOuter1" stdDeviation="0.5"></feGaussianBlur>
	<feComposite  in="shadowBlurOuter1" in2="SourceAlpha" result="shadowBlurOuter1" operator="out"></feComposite>
	<feColorMatrix  type="matrix" in="shadowBlurOuter1" values="0 0 0 0 0   0 0 0 0 0   0 0 0 0 0  0 0 0 0.1 0"></feColorMatrix>
</filter>
<title>icon01</title>
<desc>Created with Sketch.</desc>
<g>
	<g id="退货">
		<g id="分组-2">
			<g>
				<path class="st0" d="M66,384.9c-11,0-20-9-20-20s9-20,20-20s20,9,20,20S77,384.9,66,384.9z M66,345.4
					c-10.8,0-19.5,8.7-19.5,19.5s8.7,19.5,19.5,19.5s19.5-8.7,19.5-19.5S76.8,345.4,66,345.4z"/>
			</g>
			<g>
				<path class="st0" d="M73,376H59c-2.2,0-4.1-1.8-4.1-4.1v-14.1c0-2.2,1.8-4.1,4.1-4.1H73c2.2,0,4.1,1.8,4.1,4.1v14.1
					C77.1,374.2,75.3,376,73,376z M59,355.1c-1.5,0-2.7,1.2-2.7,2.7v14.1c0,1.5,1.2,2.7,2.7,2.7H73c1.5,0,2.7-1.2,2.7-2.7v-14.1
					c0-1.5-1.2-2.7-2.7-2.7H59z"/>
			</g>
			<g>
				<rect x="60.6" y="352.7" class="st0" width="1.3" height="3.1"/>
			</g>
			<g>
				<rect x="70.1" y="352.7" class="st0" width="1.3" height="3.1"/>
			</g>
			<g class="st1">
				<path class="st0" d="M62.7,361.3V360h7.1v1.1c-0.7,0.7-1.4,1.7-2.1,3c-0.7,1.2-1.2,2.5-1.6,3.8c-0.3,0.9-0.4,1.9-0.5,3h-1.4
					c0-0.9,0.2-1.9,0.5-3.1s0.8-2.4,1.4-3.6c0.6-1.1,1.3-2.1,1.9-2.9H62.7z"/>
			</g>
			<g class="st1">
				<path class="st2" d="M62.7,361.3V360h7.1v1.1c-0.7,0.7-1.4,1.7-2.1,3c-0.7,1.2-1.2,2.5-1.6,3.8c-0.3,0.9-0.4,1.9-0.5,3h-1.4
					c0-0.9,0.2-1.9,0.5-3.1s0.8-2.4,1.4-3.6c0.6-1.1,1.3-2.1,1.9-2.9H62.7z"/>
			</g>
			<g class="st1">
				<path class="st0" d="M72.7,371.9V371h-1.6v-0.4l1.7-2.4h0.4v2.4h0.5v0.4h-0.5v0.9H72.7z M72.7,370.6V369l-1.1,1.6H72.7z"/>
			</g>
		</g>
	</g>
	<g id="维修">
		<g id="分组_3_">
			<circle id="椭圆形_6_" class="st2" cx="26" cy="364.9" r="19.8"/>
			<path id="路径" class="st3" d="M34.7,363.2c0,4.8-8.7,13.9-8.7,13.9s-8.7-9-8.7-13.9c0-4.8,3.9-8.7,8.7-8.7
				S34.7,358.4,34.7,363.2L34.7,363.2z"/>
			<ellipse id="椭圆形_5_" class="st4" cx="26" cy="363.3" rx="4.2" ry="4.2"/>
			<path id="路径_1_" class="st0" d="M27.8,363.4c-0.4,0-0.8-0.3-0.9-0.7c-0.1-0.4,0.1-0.9,0.5-1c-0.8-0.6-2-0.6-2.8,0
				s-1.1,1.8-0.6,2.8c0.5,0.9,1.5,1.5,2.5,1.2c1-0.2,1.7-1.2,1.7-2.2c0-0.1,0-0.1,0-0.2C28.1,363.3,27.9,363.4,27.8,363.4
				L27.8,363.4z"/>
		</g>
	</g>
	<g id="运输">
		<g id="运输-icon">
			<circle id="椭圆形_4_" class="st2" cx="106" cy="364.9" r="19.8"/>
			<g id="分组" transform="translate(10.434783, 10.434783)">
				<polygon id="Stroke-1_1_" class="st5" points="86,364 105.1,364 105.1,348.4 86,348.4 				"/>
				<polygon id="Stroke-3" class="st5" points="105.1,348.4 86,348.4 88.1,344.9 103,344.9 				"/>
				<line id="Stroke-4" class="st6" x1="95.6" y1="344.9" x2="95.6" y2="348.4"/>
				<line id="Stroke-5_2_" class="st7" x1="92.1" y1="351.9" x2="99" y2="351.9"/>
			</g>
		</g>
	</g>
	<g id="品质保证">
		<g id="品质保证-icon">
			<g id="分组_9_" transform="translate(9.565217, 6.086957)">
				<polyline id="Stroke-1" class="st8" points="-16.9,362.2 -16.9,369.9 -23.1,367.3 -29.6,369.9 -29.6,362.2 				"/>
				<path id="Fill-3" class="st0" d="M-26.3,345.1c-0.1,0-0.1,0-0.2,0c-1,0.3-0.7,3.1-1.5,3.7c-0.2,0.1-0.4,0.2-0.8,0.2
					c-0.7,0-1.6-0.2-2.3-0.2c-0.4,0-0.7,0.1-0.9,0.3c-0.6,0.8,1.3,2.9,1,3.9c-0.3,0.9-3.1,1.5-3.1,2.6c0,1,2.8,1.6,3.1,2.6
					c0.3,1-1.6,3.1-1,3.9c0.2,0.2,0.5,0.3,0.9,0.3c0.7,0,1.6-0.2,2.3-0.2c0.3,0,0.6,0,0.8,0.2c0.8,0.6,0.5,3.4,1.5,3.7
					c0.1,0,0.1,0,0.2,0c0.9,0,2.2-2.2,3.2-2.2s2.3,2.2,3.2,2.2c0.1,0,0.1,0,0.2,0c1-0.3,0.7-3.1,1.5-3.7c0.2-0.1,0.4-0.2,0.8-0.2
					c0.7,0,1.6,0.2,2.3,0.2c0.4,0,0.7-0.1,0.9-0.3c0.6-0.8-1.3-2.9-1-3.9c0.3-0.9,3.1-1.5,3.1-2.6c0-1-2.8-1.6-3.1-2.6
					c-0.3-1,1.6-3.1,1-3.9c-0.2-0.2-0.5-0.3-0.9-0.3c-0.7,0-1.6,0.2-2.3,0.2c-0.3,0-0.6,0-0.8-0.2c-0.8-0.6-0.5-3.4-1.5-3.7
					c-0.1,0-0.1,0-0.2,0c-0.9,0-2.2,2.2-3.2,2.2S-25.4,345.1-26.3,345.1 M-20.3,346.9c0,0.1,0,0.3,0.1,0.4c0.2,1,0.4,2.1,1.2,2.7
					c0.4,0.3,0.9,0.4,1.5,0.4c0.4,0,0.9-0.1,1.3-0.1c0.1,0,0.3,0,0.4-0.1c-0.1,0.1-0.1,0.2-0.2,0.3c-0.5,0.9-0.9,1.9-0.6,2.9
					c0.3,0.9,1.2,1.4,2.1,1.9c0.1,0.1,0.3,0.1,0.4,0.2c-0.1,0.1-0.3,0.2-0.4,0.2c-0.9,0.5-1.8,1-2.1,1.9c-0.3,1,0.2,1.9,0.6,2.9
					c0,0.1,0.1,0.2,0.2,0.3c-0.1,0-0.3,0-0.4-0.1c-0.4-0.1-0.9-0.1-1.3-0.1c-0.6,0-1.1,0.1-1.5,0.4c-0.8,0.6-1,1.6-1.2,2.7
					c0,0.1,0,0.2-0.1,0.4c-0.1-0.1-0.2-0.2-0.2-0.2c-0.8-0.7-1.5-1.5-2.6-1.5c-1,0-1.8,0.8-2.6,1.5c-0.1,0.1-0.2,0.2-0.2,0.2
					c0-0.1,0-0.3-0.1-0.4c-0.2-1-0.4-2.1-1.2-2.7c-0.4-0.3-0.9-0.4-1.5-0.4c-0.4,0-0.9,0.1-1.3,0.1c-0.1,0-0.3,0-0.4,0.1
					c0.1-0.1,0.1-0.2,0.2-0.3c0.4-0.9,0.9-1.9,0.6-2.9c-0.3-0.9-1.2-1.4-2.1-1.9c-0.1-0.1-0.3-0.1-0.4-0.2c0.1-0.1,0.3-0.2,0.4-0.2
					c0.9-0.5,1.8-1,2.1-1.9c0.3-1-0.2-1.9-0.6-2.9c0-0.1-0.1-0.2-0.2-0.3c0.1,0,0.2,0,0.4,0.1c0.4,0.1,0.9,0.1,1.3,0.1
					c0.6,0,1.1-0.1,1.5-0.4c0.8-0.6,1-1.6,1.2-2.7c0-0.1,0-0.2,0.1-0.4c0.1,0.1,0.2,0.2,0.2,0.2c0.8,0.7,1.5,1.5,2.6,1.5
					c1,0,1.8-0.8,2.6-1.5C-20.5,347.1-20.4,347-20.3,346.9"/>
				<line id="Stroke-5_1_" class="st9" x1="-27.3" y1="354.1" x2="-19.1" y2="354.1"/>
				<line id="Stroke-7" class="st9" x1="-27.3" y1="357" x2="-19.1" y2="357"/>
			</g>
			<circle id="椭圆形_3_" class="st2" cx="-14" cy="364.9" r="19.8"/>
		</g>
	</g>
	
		<linearGradient id="合并形状_3_" gradientUnits="userSpaceOnUse" x1="-207.7857" y1="817.1371" x2="-207.7857" y2="816.1371" gradientTransform="matrix(14 0 0 -14 2811 11787.8105)">
		<stop  offset="0" style="stop-color:#FF9291"/>
		<stop  offset="1" style="stop-color:#F7756D"/>
	</linearGradient>
	<path id="合并形状" class="st10" d="M-92.5,347.9c0.8,0,1.5,0.7,1.5,1.5v11c0,0.8-0.7,1.5-1.5,1.5h-11c-0.8,0-1.5-0.7-1.5-1.5
		v-11c0-0.8,0.7-1.5,1.5-1.5H-92.5z M-100.3,355.5L-100.3,355.5l-0.1,0c-0.9,0.1-1.6,0.8-1.6,1.7l0,0v0.7l0,0.1
		c0.1,0.5,0.5,0.9,1,0.9l0,0h6l0.1,0c0.5-0.1,0.9-0.5,0.9-1l0,0v-0.7l0-0.1c-0.1-0.9-0.8-1.6-1.7-1.6l0,0H-100.3z M-98,350.9
		c-1,0-1.9,0.8-1.9,1.9s0.8,1.9,1.9,1.9s1.9-0.8,1.9-1.9S-97,350.9-98,350.9z"/>
	
		<linearGradient id="合并形状_4_" gradientUnits="userSpaceOnUse" x1="-208.75" y1="818.78" x2="-208.75" y2="817.78" gradientTransform="matrix(16 0 0 -15 3262 12628.5898)">
		<stop  offset="0" style="stop-color:#FF9291"/>
		<stop  offset="1" style="stop-color:#F7756D"/>
	</linearGradient>
	<path id="合并形状_1_" class="st11" d="M-78,346.9c4.4,0,8,3,8,6.8s-3.6,6.8-8,6.8c-0.6,0-1.9-0.2-1.9-0.2c0,0-0.2,0.1-0.5,0.3
		c-0.4,0.3-0.9,0.7-1.5,1.2c-0.3,0.3-0.8,0-0.7-0.3c0.1-0.7,0.2-1.3,0.2-1.7c0,0,0-0.2,0-0.4c-2.2-1.2-3.6-3.4-3.6-5.7
		C-86,349.9-82.4,346.9-78,346.9z M-74,352.8c-0.6,0-1,0.4-1,1c0,0.5,0.4,1,1,1s1-0.4,1-1C-73,353.3-73.4,352.8-74,352.8z
		 M-78,352.8c-0.6,0-1,0.4-1,1c0,0.5,0.4,1,1,1s1-0.4,1-1C-77,353.3-77.4,352.8-78,352.8z M-82,352.8c-0.6,0-1,0.4-1,1
		c0,0.5,0.4,1,1,1s1-0.4,1-1C-81,353.3-81.4,352.8-82,352.8z"/>
	<path id="合并形状_2_" class="st12" d="M-52.5,347.9c0.8,0,1.5,0.7,1.5,1.5v11c0,0.8-0.7,1.5-1.5,1.5h-11
		c-0.8,0-1.5-0.7-1.5-1.5v-11c0-0.8,0.7-1.5,1.5-1.5H-52.5z M-60.3,355.5L-60.3,355.5l-0.1,0c-0.9,0.1-1.6,0.8-1.6,1.7l0,0v0.7
		l0,0.1c0.1,0.5,0.5,0.9,1,0.9l0,0h6l0.1,0c0.5-0.1,0.9-0.5,0.9-1l0,0v-0.7l0-0.1c-0.1-0.9-0.8-1.6-1.7-1.6l0,0H-60.3z M-58,350.9
		c-1,0-1.9,0.8-1.9,1.9s0.8,1.9,1.9,1.9c1,0,1.9-0.8,1.9-1.9S-57,350.9-58,350.9z"/>
	<g id="分组-3" transform="translate(243.000000, 0.000000)">
		<g id="分组_4_">
			<g id="多边形">
				<g class="st13">
					<path id="path-4_1_" d="M-96.5,345.5l4,1.7c1,0.4,1.8,1.2,2.2,2.2l1.7,4c0.4,1,0.4,2.1,0,3.1l-1.7,4c-0.4,1-1.2,1.8-2.2,2.2
						l-4,1.7c-1,0.4-2.1,0.4-3.1,0l-4-1.7c-1-0.4-1.8-1.2-2.2-2.2l-1.7-4c-0.4-1-0.4-2.1,0-3.1l1.7-4c0.4-1,1.2-1.8,2.2-2.2l4-1.7
						C-98.6,345.1-97.4,345.1-96.5,345.5z"/>
				</g>
				
					<linearGradient id="SVGID_1_" gradientUnits="userSpaceOnUse" x1="-452.8206" y1="822.5593" x2="-452.4098" y2="822.3829" gradientTransform="matrix(18.3409 0 0 -18.3409 8203.2852 15439.6904)">
					<stop  offset="0" style="stop-color:#3A2909"/>
					<stop  offset="0.5266" style="stop-color:#A18141"/>
					<stop  offset="1" style="stop-color:#3A2909"/>
				</linearGradient>
				<path class="st14" d="M-96.7,346c-0.9-0.4-1.8-0.4-2.7,0l-4,1.7c-0.9,0.4-1.5,1-1.9,1.9l-1.7,4c-0.4,0.9-0.4,1.8,0,2.7l1.7,4
					c0.4,0.9,1,1.5,1.9,1.9l4,1.7c0.9,0.4,1.8,0.4,2.7,0l4-1.7c0.9-0.4,1.5-1,1.9-1.9l1.7-4c0.4-0.9,0.4-1.8,0-2.7l-1.7-4
					c-0.4-0.9-1-1.5-1.9-1.9L-96.7,346z"/>
			</g>
			<g id="Clip-2" class="st15">
				<g class="st16">
					<path id="path-6_2_" d="M-97.1,351.5c-0.9,0-1.1,0.4-1.3,0.8l0,0c-0.1,0.2-1.2,3.1-2,4.8l0,0c-0.7-1.7-1.9-4.6-2-4.8l0,0
						c-0.2-0.4-0.4-0.8-1.3-0.8l0,0h-0.8c0,0,3,7.1,3.1,7.2l0,0c0,0.1,0.2,0.4,1,0.4l0,0h0h0c0.8,0,0.9-0.3,1-0.4l0,0
						c0-0.1,3.1-7.2,3.1-7.2l0,0H-97.1z"/>
				</g>
				<g>
					<path id="path-6_1_" class="st17" d="M-97.1,351.5c-0.9,0-1.1,0.4-1.3,0.8l0,0c-0.1,0.2-1.2,3.1-2,4.8l0,0
						c-0.7-1.7-1.9-4.6-2-4.8l0,0c-0.2-0.4-0.4-0.8-1.3-0.8l0,0h-0.8c0,0,3,7.1,3.1,7.2l0,0c0,0.1,0.2,0.4,1,0.4l0,0h0h0
						c0.8,0,0.9-0.3,1-0.4l0,0c0-0.1,3.1-7.2,3.1-7.2l0,0H-97.1z"/>
				</g>
			</g>
			<g id="Fill-83-Copy" class="st15">
				<g class="st18">
					<path id="path-8_2_" d="M-94.8,354.3c-0.2,0-0.3,0-0.4,0l0.2-1.6h1.7c0.6,0,1-0.5,1-1l0,0l0,0h-2.9c-0.4,0-0.7,0.3-0.8,0.7
						l-0.4,2.7c0,0.1,0,0.2,0.1,0.2c0,0,0,0,0,0l0,0l0,0c0.3,0,0.5-0.1,0.9-0.1c1.2,0,1.9,0.5,1.9,1.4c0,0.9-0.8,1.4-1.6,1.4
						c-0.2,0-0.4,0-0.7-0.1c-0.5-0.1-1,0.1-1.2,0.6l0,0l0,0c0.7,0.3,1.3,0.5,1.9,0.5c1.6,0,2.7-1.1,2.7-2.5c0-0.8-0.4-1.5-1.1-1.9
						C-93.7,354.4-94.2,354.3-94.8,354.3z"/>
				</g>
				<g>
					<path id="path-8_1_" class="st17" d="M-94.8,354.3c-0.2,0-0.3,0-0.4,0l0.2-1.6h1.7c0.6,0,1-0.5,1-1l0,0l0,0h-2.9
						c-0.4,0-0.7,0.3-0.8,0.7l-0.4,2.7c0,0.1,0,0.2,0.1,0.2c0,0,0,0,0,0l0,0l0,0c0.3,0,0.5-0.1,0.9-0.1c1.2,0,1.9,0.5,1.9,1.4
						c0,0.9-0.8,1.4-1.6,1.4c-0.2,0-0.4,0-0.7-0.1c-0.5-0.1-1,0.1-1.2,0.6l0,0l0,0c0.7,0.3,1.3,0.5,1.9,0.5c1.6,0,2.7-1.1,2.7-2.5
						c0-0.8-0.4-1.5-1.1-1.9C-93.7,354.4-94.2,354.3-94.8,354.3z"/>
				</g>
			</g>
		</g>
		<g id="分组_5_" transform="translate(40.000000, 0.000000)">
			<g id="多边形_1_">
				<g class="st19">
					<path id="path-11_1_" d="M-96.5,345.5l4,1.7c1,0.4,1.8,1.2,2.2,2.2l1.7,4c0.4,1,0.4,2.1,0,3.1l-1.7,4c-0.4,1-1.2,1.8-2.2,2.2
						l-4,1.7c-1,0.4-2.1,0.4-3.1,0l-4-1.7c-1-0.4-1.8-1.2-2.2-2.2l-1.7-4c-0.4-1-0.4-2.1,0-3.1l1.7-4c0.4-1,1.2-1.8,2.2-2.2l4-1.7
						C-98.6,345.1-97.4,345.1-96.5,345.5z"/>
				</g>
				
					<linearGradient id="SVGID_2_" gradientUnits="userSpaceOnUse" x1="-492.8206" y1="822.5593" x2="-492.4098" y2="822.3829" gradientTransform="matrix(18.3409 0 0 -18.3409 8936.9199 15439.6904)">
					<stop  offset="0" style="stop-color:#5C0E0E"/>
					<stop  offset="0.5266" style="stop-color:#D53A41"/>
					<stop  offset="1" style="stop-color:#5C0E0E"/>
				</linearGradient>
				<path class="st20" d="M-96.7,346c-0.9-0.4-1.8-0.4-2.7,0l-4,1.7c-0.9,0.4-1.5,1-1.9,1.9l-1.7,4c-0.4,0.9-0.4,1.8,0,2.7l1.7,4
					c0.4,0.9,1,1.5,1.9,1.9l4,1.7c0.9,0.4,1.8,0.4,2.7,0l4-1.7c0.9-0.4,1.5-1,1.9-1.9l1.7-4c0.4-0.9,0.4-1.8,0-2.7l-1.7-4
					c-0.4-0.9-1-1.5-1.9-1.9L-96.7,346z"/>
			</g>
			<g id="Clip-2_1_" class="st15">
				<g class="st21">
					<path id="path-13_2_" d="M-97.4,351.6c-0.9,0-1.1,0.4-1.3,0.8l0,0c-0.1,0.2-1.2,3.1-2,4.8l0,0c-0.7-1.7-1.9-4.6-2-4.8l0,0
						c-0.2-0.4-0.4-0.8-1.3-0.8l0,0h-0.8c0,0,3,7.1,3.1,7.2l0,0c0,0.1,0.2,0.4,1,0.4l0,0h0h0c0.8,0,0.9-0.3,1-0.4l0,0
						c0-0.1,3.1-7.2,3.1-7.2l0,0H-97.4z"/>
				</g>
				<g>
					<path id="path-13_1_" class="st22" d="M-97.4,351.6c-0.9,0-1.1,0.4-1.3,0.8l0,0c-0.1,0.2-1.2,3.1-2,4.8l0,0
						c-0.7-1.7-1.9-4.6-2-4.8l0,0c-0.2-0.4-0.4-0.8-1.3-0.8l0,0h-0.8c0,0,3,7.1,3.1,7.2l0,0c0,0.1,0.2,0.4,1,0.4l0,0h0h0
						c0.8,0,0.9-0.3,1-0.4l0,0c0-0.1,3.1-7.2,3.1-7.2l0,0H-97.4z"/>
				</g>
			</g>
			<g id="Fill-81-Copy" class="st15">
				<g class="st23">
					<path id="path-15_2_" d="M-91.9,353.3c0-0.9-0.7-1.8-2.2-1.8c-0.5,0-1.2,0.2-2,0.6c0.2,0.5,0.7,0.7,1.2,0.5c0,0,0,0,0,0
						c0.3-0.1,0.5-0.1,0.7-0.1c1,0,1.2,0.7,1.2,1c0,0.8-0.9,1.1-1.5,1.1h-0.2c-0.3,0-0.5,0.2-0.5,0.5s0.2,0.5,0.5,0.5h0.2l0,0
						c0.8,0,1.7,0.3,1.8,1.3c0,0.3-0.1,0.6-0.3,0.9c-0.3,0.3-0.7,0.4-1.2,0.4c-0.5,0-1.1-0.2-1.6-0.5c-0.4-0.2-0.9-0.1-1.1,0.4
						c0,0,0,0.1,0,0.1l0,0l0,0c1.1,0.7,2.1,1,2.8,1c1.9,0,2.8-1.1,2.8-2.3c0-0.9-0.5-1.6-1.4-1.9C-92.3,354.7-91.9,354.1-91.9,353.3
						z"/>
				</g>
				<g>
					<path id="path-15_1_" class="st22" d="M-91.9,353.3c0-0.9-0.7-1.8-2.2-1.8c-0.5,0-1.2,0.2-2,0.6c0.2,0.5,0.7,0.7,1.2,0.5
						c0,0,0,0,0,0c0.3-0.1,0.5-0.1,0.7-0.1c1,0,1.2,0.7,1.2,1c0,0.8-0.9,1.1-1.5,1.1h-0.2c-0.3,0-0.5,0.2-0.5,0.5s0.2,0.5,0.5,0.5
						h0.2l0,0c0.8,0,1.7,0.3,1.8,1.3c0,0.3-0.1,0.6-0.3,0.9c-0.3,0.3-0.7,0.4-1.2,0.4c-0.5,0-1.1-0.2-1.6-0.5
						c-0.4-0.2-0.9-0.1-1.1,0.4c0,0,0,0.1,0,0.1l0,0l0,0c1.1,0.7,2.1,1,2.8,1c1.9,0,2.8-1.1,2.8-2.3c0-0.9-0.5-1.6-1.4-1.9
						C-92.3,354.7-91.9,354.1-91.9,353.3z"/>
				</g>
			</g>
		</g>
		<g id="分组_6_" transform="translate(60.000000, 0.000000)">
			<g id="多边形_2_">
				<g class="st24">
					<path id="path-18_1_" d="M-96.5,345.5l4,1.7c1,0.4,1.8,1.2,2.2,2.2l1.7,4c0.4,1,0.4,2.1,0,3.1l-1.7,4c-0.4,1-1.2,1.8-2.2,2.2
						l-4,1.7c-1,0.4-2.1,0.4-3.1,0l-4-1.7c-1-0.4-1.8-1.2-2.2-2.2l-1.7-4c-0.4-1-0.4-2.1,0-3.1l1.7-4c0.4-1,1.2-1.8,2.2-2.2l4-1.7
						C-98.6,345.1-97.4,345.1-96.5,345.5z"/>
				</g>
				
					<linearGradient id="SVGID_3_" gradientUnits="userSpaceOnUse" x1="-512.8206" y1="822.5593" x2="-512.4098" y2="822.3829" gradientTransform="matrix(18.3409 0 0 -18.3409 9303.7373 15439.6904)">
					<stop  offset="0" style="stop-color:#605D5C"/>
					<stop  offset="0.5266" style="stop-color:#9E9C97"/>
					<stop  offset="1" style="stop-color:#605D5C"/>
				</linearGradient>
				<path class="st25" d="M-96.7,346c-0.9-0.4-1.8-0.4-2.7,0l-4,1.7c-0.9,0.4-1.5,1-1.9,1.9l-1.7,4c-0.4,0.9-0.4,1.8,0,2.7l1.7,4
					c0.4,0.9,1,1.5,1.9,1.9l4,1.7c0.9,0.4,1.8,0.4,2.7,0l4-1.7c0.9-0.4,1.5-1,1.9-1.9l1.7-4c0.4-0.9,0.4-1.8,0-2.7l-1.7-4
					c-0.4-0.9-1-1.5-1.9-1.9L-96.7,346z"/>
			</g>
			<g id="Clip-2_2_" class="st15">
				<g class="st26">
					<path id="path-20_2_" d="M-97.3,351.3c-0.9,0-1.1,0.4-1.3,0.8l0,0c-0.1,0.2-1.2,3.1-2,4.8l0,0c-0.7-1.7-1.9-4.6-2-4.8l0,0
						c-0.2-0.4-0.4-0.8-1.3-0.8l0,0h-0.8c0,0,3,7.1,3.1,7.2l0,0c0,0.1,0.2,0.4,1,0.4l0,0h0h0c0.8,0,0.9-0.3,1-0.4l0,0
						c0-0.1,3.1-7.2,3.1-7.2l0,0H-97.3z"/>
				</g>
				<g>
					<path id="path-20_1_" class="st27" d="M-97.3,351.3c-0.9,0-1.1,0.4-1.3,0.8l0,0c-0.1,0.2-1.2,3.1-2,4.8l0,0
						c-0.7-1.7-1.9-4.6-2-4.8l0,0c-0.2-0.4-0.4-0.8-1.3-0.8l0,0h-0.8c0,0,3,7.1,3.1,7.2l0,0c0,0.1,0.2,0.4,1,0.4l0,0h0h0
						c0.8,0,0.9-0.3,1-0.4l0,0c0-0.1,3.1-7.2,3.1-7.2l0,0H-97.3z"/>
				</g>
			</g>
			<g id="Fill-1" class="st15">
				<g class="st28">
					<path id="path-22_2_" d="M-94.9,357.7l0.4-0.3c1.4-1.4,2.5-2.5,2.5-3.9c0-1.1-0.7-2.2-2.3-2.2c-0.5,0-1.2,0.3-2.1,0.8
						c0.2,0.4,0.7,0.6,1.1,0.4c0,0,0,0,0,0c0.3-0.1,0.6-0.2,0.8-0.2c1.1,0,1.3,0.8,1.3,1.3c0,1-0.8,1.9-2.6,3.6l-0.5,0.5
						c-0.2,0.2-0.3,0.4-0.3,0.6c0,0.2,0.2,0.4,0.4,0.4h4.3l0,0c0-0.6-0.5-1-1-1H-94.9L-94.9,357.7z"/>
				</g>
				<g>
					<path id="path-22_1_" class="st27" d="M-94.9,357.7l0.4-0.3c1.4-1.4,2.5-2.5,2.5-3.9c0-1.1-0.7-2.2-2.3-2.2
						c-0.5,0-1.2,0.3-2.1,0.8c0.2,0.4,0.7,0.6,1.1,0.4c0,0,0,0,0,0c0.3-0.1,0.6-0.2,0.8-0.2c1.1,0,1.3,0.8,1.3,1.3
						c0,1-0.8,1.9-2.6,3.6l-0.5,0.5c-0.2,0.2-0.3,0.4-0.3,0.6c0,0.2,0.2,0.4,0.4,0.4h4.3l0,0c0-0.6-0.5-1-1-1H-94.9L-94.9,357.7z"/>
				</g>
			</g>
		</g>
		<g id="分组_7_" transform="translate(80.000000, 0.000000)">
			<g id="多边形_3_">
				<g class="st29">
					<path id="path-24_1_" d="M-96.5,345.5l4,1.7c1,0.4,1.8,1.2,2.2,2.2l1.7,4c0.4,1,0.4,2.1,0,3.1l-1.7,4c-0.4,1-1.2,1.8-2.2,2.2
						l-4,1.7c-1,0.4-2.1,0.4-3.1,0l-4-1.7c-1-0.4-1.8-1.2-2.2-2.2l-1.7-4c-0.4-1-0.4-2.1,0-3.1l1.7-4c0.4-1,1.2-1.8,2.2-2.2l4-1.7
						C-98.6,345.1-97.4,345.1-96.5,345.5z"/>
				</g>
				
					<linearGradient id="SVGID_4_" gradientUnits="userSpaceOnUse" x1="-532.8206" y1="822.5593" x2="-532.4098" y2="822.3829" gradientTransform="matrix(18.3409 0 0 -18.3409 9670.5547 15439.6904)">
					<stop  offset="0" style="stop-color:#605D5C"/>
					<stop  offset="0.5266" style="stop-color:#9E9C97"/>
					<stop  offset="1" style="stop-color:#605D5C"/>
				</linearGradient>
				<path class="st30" d="M-96.7,346c-0.9-0.4-1.8-0.4-2.7,0l-4,1.7c-0.9,0.4-1.5,1-1.9,1.9l-1.7,4c-0.4,0.9-0.4,1.8,0,2.7l1.7,4
					c0.4,0.9,1,1.5,1.9,1.9l4,1.7c0.9,0.4,1.8,0.4,2.7,0l4-1.7c0.9-0.4,1.5-1,1.9-1.9l1.7-4c0.4-0.9,0.4-1.8,0-2.7l-1.7-4
					c-0.4-0.9-1-1.5-1.9-1.9L-96.7,346z"/>
			</g>
			<g id="Clip-2_3_" class="st15">
				<g class="st31">
					<path id="path-26_2_" d="M-96.4,351.3c-0.9,0-1.1,0.4-1.3,0.8l0,0c-0.1,0.2-1.2,3.1-2,4.8l0,0c-0.7-1.7-1.9-4.6-2-4.8l0,0
						c-0.2-0.4-0.4-0.8-1.3-0.8l0,0h-0.8c0,0,3,7.1,3.1,7.2l0,0c0,0.1,0.2,0.4,1,0.4l0,0h0h0c0.8,0,0.9-0.3,1-0.4l0,0
						c0-0.1,3.1-7.2,3.1-7.2l0,0H-96.4z"/>
				</g>
				<g>
					<path id="path-26_1_" class="st32" d="M-96.4,351.3c-0.9,0-1.1,0.4-1.3,0.8l0,0c-0.1,0.2-1.2,3.1-2,4.8l0,0
						c-0.7-1.7-1.9-4.6-2-4.8l0,0c-0.2-0.4-0.4-0.8-1.3-0.8l0,0h-0.8c0,0,3,7.1,3.1,7.2l0,0c0,0.1,0.2,0.4,1,0.4l0,0h0h0
						c0.8,0,0.9-0.3,1-0.4l0,0c0-0.1,3.1-7.2,3.1-7.2l0,0H-96.4z"/>
				</g>
			</g>
			<g id="Fill-79" class="st15">
				<g class="st33">
					<path id="path-28_2_" d="M-94.7,351.6l0,0.6c0,0,0,0,0,0v0.5l0,0v4.7c0,0.7,0.6,1.3,1.3,1.3l0,0l0,0v-5.9
						C-93.4,352.2-94,351.6-94.7,351.6L-94.7,351.6L-94.7,351.6z"/>
				</g>
				<g>
					<path id="path-28_1_" class="st34" d="M-94.7,351.6l0,0.6c0,0,0,0,0,0v0.5l0,0v4.7c0,0.7,0.6,1.3,1.3,1.3l0,0l0,0v-5.9
						C-93.4,352.2-94,351.6-94.7,351.6L-94.7,351.6L-94.7,351.6z"/>
				</g>
			</g>
		</g>
		<g id="分组_8_" transform="translate(100.000000, 0.000000)">
			<g id="多边形_4_">
				<g class="st35">
					<path id="path-30_1_" d="M-96.5,345.5l4,1.7c1,0.4,1.8,1.2,2.2,2.2l1.7,4c0.4,1,0.4,2.1,0,3.1l-1.7,4c-0.4,1-1.2,1.8-2.2,2.2
						l-4,1.7c-1,0.4-2.1,0.4-3.1,0l-4-1.7c-1-0.4-1.8-1.2-2.2-2.2l-1.7-4c-0.4-1-0.4-2.1,0-3.1l1.7-4c0.4-1,1.2-1.8,2.2-2.2l4-1.7
						C-98.6,345.1-97.4,345.1-96.5,345.5z"/>
				</g>
				
					<linearGradient id="SVGID_5_" gradientUnits="userSpaceOnUse" x1="-552.8206" y1="822.5593" x2="-552.4098" y2="822.3829" gradientTransform="matrix(18.3409 0 0 -18.3409 10037.3711 15439.6904)">
					<stop  offset="0" style="stop-color:#605D5C"/>
					<stop  offset="0.5266" style="stop-color:#9E9C97"/>
					<stop  offset="1" style="stop-color:#605D5C"/>
				</linearGradient>
				<path class="st36" d="M-96.7,346c-0.9-0.4-1.8-0.4-2.7,0l-4,1.7c-0.9,0.4-1.5,1-1.9,1.9l-1.7,4c-0.4,0.9-0.4,1.8,0,2.7l1.7,4
					c0.4,0.9,1,1.5,1.9,1.9l4,1.7c0.9,0.4,1.8,0.4,2.7,0l4-1.7c0.9-0.4,1.5-1,1.9-1.9l1.7-4c0.4-0.9,0.4-1.8,0-2.7l-1.7-4
					c-0.4-0.9-1-1.5-1.9-1.9L-96.7,346z"/>
			</g>
			<g id="Clip-2_4_" class="st15">
				<g class="st37">
					<path id="path-32_2_" d="M-97.8,351.3c-0.9,0-1.1,0.4-1.3,0.8l0,0c-0.1,0.2-1.2,3.1-2,4.8l0,0c-0.7-1.7-1.9-4.6-2-4.8l0,0
						c-0.2-0.4-0.4-0.8-1.3-0.8l0,0h-0.8c0,0,3,7.1,3.1,7.2l0,0c0,0.1,0.2,0.4,1,0.4l0,0h0h0c0.8,0,0.9-0.3,1-0.4l0,0
						c0-0.1,3.1-7.2,3.1-7.2l0,0H-97.8z"/>
				</g>
				<g>
					<path id="path-32_1_" class="st32" d="M-97.8,351.3c-0.9,0-1.1,0.4-1.3,0.8l0,0c-0.1,0.2-1.2,3.1-2,4.8l0,0
						c-0.7-1.7-1.9-4.6-2-4.8l0,0c-0.2-0.4-0.4-0.8-1.3-0.8l0,0h-0.8c0,0,3,7.1,3.1,7.2l0,0c0,0.1,0.2,0.4,1,0.4l0,0h0h0
						c0.8,0,0.9-0.3,1-0.4l0,0c0-0.1,3.1-7.2,3.1-7.2l0,0H-97.8z"/>
				</g>
			</g>
			<ellipse id="椭圆形_1_" class="st38" cx="-93.8" cy="355.1" rx="2.7" ry="2.9"/>
		</g>
		<g id="分组-4" transform="translate(20.000000, 0.000000)">
			<g id="多边形_5_">
				<g class="st39">
					<path id="path-34_1_" d="M-96.5,345.5l4,1.7c1,0.4,1.8,1.2,2.2,2.2l1.7,4c0.4,1,0.4,2.1,0,3.1l-1.7,4c-0.4,1-1.2,1.8-2.2,2.2
						l-4,1.7c-1,0.4-2.1,0.4-3.1,0l-4-1.7c-1-0.4-1.8-1.2-2.2-2.2l-1.7-4c-0.4-1-0.4-2.1,0-3.1l1.7-4c0.4-1,1.2-1.8,2.2-2.2l4-1.7
						C-98.6,345.1-97.4,345.1-96.5,345.5z"/>
				</g>
				
					<linearGradient id="SVGID_6_" gradientUnits="userSpaceOnUse" x1="-472.8206" y1="822.5593" x2="-472.4098" y2="822.3829" gradientTransform="matrix(18.3409 0 0 -18.3409 8570.1025 15439.6904)">
					<stop  offset="0" style="stop-color:#5C0E0E"/>
					<stop  offset="0.5266" style="stop-color:#D53A41"/>
					<stop  offset="1" style="stop-color:#5C0E0E"/>
				</linearGradient>
				<path class="st40" d="M-96.7,346c-0.9-0.4-1.8-0.4-2.7,0l-4,1.7c-0.9,0.4-1.5,1-1.9,1.9l-1.7,4c-0.4,0.9-0.4,1.8,0,2.7l1.7,4
					c0.4,0.9,1,1.5,1.9,1.9l4,1.7c0.9,0.4,1.8,0.4,2.7,0l4-1.7c0.9-0.4,1.5-1,1.9-1.9l1.7-4c0.4-0.9,0.4-1.8,0-2.7l-1.7-4
					c-0.4-0.9-1-1.5-1.9-1.9L-96.7,346z"/>
			</g>
			<g id="Clip-2_5_" class="st15">
				<g class="st41">
					<path id="path-36_2_" d="M-96.7,351.9c-0.9,0-1.1,0.4-1.3,0.8l0,0c-0.1,0.2-1.2,3.1-2,4.8l0,0c-0.7-1.7-1.9-4.6-2-4.8l0,0
						c-0.2-0.4-0.4-0.8-1.3-0.8l0,0h-0.8c0,0,3,7.1,3.1,7.2l0,0c0,0.1,0.2,0.4,1,0.4l0,0h0h0c0.8,0,0.9-0.3,1-0.4l0,0
						c0-0.1,3.1-7.2,3.1-7.2l0,0H-96.7z"/>
				</g>
				<g>
					<path id="path-36_1_" class="st22" d="M-96.7,351.9c-0.9,0-1.1,0.4-1.3,0.8l0,0c-0.1,0.2-1.2,3.1-2,4.8l0,0
						c-0.7-1.7-1.9-4.6-2-4.8l0,0c-0.2-0.4-0.4-0.8-1.3-0.8l0,0h-0.8c0,0,3,7.1,3.1,7.2l0,0c0,0.1,0.2,0.4,1,0.4l0,0h0h0
						c0.8,0,0.9-0.3,1-0.4l0,0c0-0.1,3.1-7.2,3.1-7.2l0,0H-96.7z"/>
				</g>
			</g>
			<g id="Fill-82" class="st15">
				<g class="st42">
					<path id="path-38_2_" d="M-95.7,356.4l1.7-2.3c0.1-0.2,0.3-0.5,0.4-0.7c0,0.2,0,0.5,0,0.7v2.3H-95.7z M-92.5,356.4v-4
						c0-0.3-0.2-0.5-0.5-0.5h-0.1c-0.4,0-0.7,0.2-1,0.5l-2.8,4c-0.1,0.1-0.1,0.2-0.1,0.3v0.2c0,0.2,0.2,0.4,0.4,0.4h3l0,0v2
						c0.6,0,1.2-0.5,1.2-1.2v-0.8l0,0h1C-91.5,356.8-91.9,356.4-92.5,356.4L-92.5,356.4L-92.5,356.4z"/>
				</g>
				<g>
					<path id="path-38_1_" class="st22" d="M-95.7,356.4l1.7-2.3c0.1-0.2,0.3-0.5,0.4-0.7c0,0.2,0,0.5,0,0.7v2.3H-95.7z
						 M-92.5,356.4v-4c0-0.3-0.2-0.5-0.5-0.5h-0.1c-0.4,0-0.7,0.2-1,0.5l-2.8,4c-0.1,0.1-0.1,0.2-0.1,0.3v0.2c0,0.2,0.2,0.4,0.4,0.4
						h3l0,0v2c0.6,0,1.2-0.5,1.2-1.2v-0.8l0,0h1C-91.5,356.8-91.9,356.4-92.5,356.4L-92.5,356.4L-92.5,356.4z"/>
				</g>
			</g>
		</g>
	</g>
	<g id="banner箭头左" transform="translate(0.000000, 72.000000)">
		<rect id="矩形" x="-108" y="344.9" class="st43" width="80" height="80"/>
		<circle id="Oval-5" class="st44" cx="-68" cy="384.9" r="28"/>
		<polygon id="Prev" class="st45" points="-66.2,392.9 -65,391.6 -71.3,384.9 -65,378.2 -66.2,376.9 -74,384.9 		"/>
	</g>
	
		<g id="banner箭头右" transform="translate(120.000000, 112.000000) scale(-1, 1) translate(-120.000000, -112.000000) translate(80.000000, 72.000000)">
		<rect id="矩形-copy" x="108" y="424.9" class="st43" width="80" height="-80"/>
		<circle id="Oval-5_1_" class="st44" cx="148" cy="384.9" r="28"/>
		<polygon id="Prev_1_" class="st45" points="149.8,392.9 151,391.6 144.7,384.9 151,378.2 149.8,376.9 142,384.9 		"/>
	</g>
	<g id="banner箭头右移入" transform="translate(160.000000, 72.000000)">
		<rect id="矩形-copy-2" x="-108" y="344.9" class="st43" width="80" height="80"/>
		<g id="Oval-5-Copy" class="st46">
			<g class="st47">
				<circle id="path-40_2_" cx="-68" cy="384.9" r="28"/>
			</g>
			<g>
				<circle id="path-40_1_" cx="-68" cy="384.9" r="28"/>
			</g>
		</g>
		<polygon id="Next" class="st48" points="-69.8,376.9 -71,378.2 -64.7,384.9 -71,391.6 -69.8,392.9 -62,384.9 		"/>
	</g>
	
		<g id="banner箭头左移入" transform="translate(280.000000, 112.000000) scale(-1, 1) translate(-280.000000, -112.000000) translate(240.000000, 72.000000)">
		<rect id="矩形-copy-3" x="108" y="424.9" class="st43" width="80" height="-80"/>
		<g id="Oval-5-Copy_1_" class="st46">
			<g class="st49">
				<circle id="path-42_2_" cx="148" cy="384.9" r="28"/>
			</g>
			<g>
				<circle id="path-42_1_" cx="148" cy="384.9" r="28"/>
			</g>
		</g>
		<polygon id="Next_1_" class="st48" points="146.2,376.9 145,378.2 151.3,384.9 145,391.6 146.2,392.9 154,384.9 		"/>
	</g>
	<g id="Title" transform="translate(247.000000, 35.000000)">
		<rect id="矩形_1_" x="-108" y="344.9" class="st43" width="112" height="28"/>
		<g id="限时购">
			<g>
				<path id="path-45" class="st50" d="M-64,368.1c-0.7,0.2-4.9,1.9-6.9,2.7l-1-2.9c0.9-0.3,0.9-0.6,1-1.4l2.7-18.6h12.6l-1.7,12
					h-0.6l1.3,1.9c-1.3,0.9-2.7,1.8-4,2.6c1,1.1,2.4,2.1,4.3,2.9l-2.4,2.7c-2.4-1.4-4.1-2.8-5.3-4.7L-64,368.1z M-80,369.8l3.2-22
					h8.4l-0.4,2.9l-2.8,5.2c1,2.1,1.4,4.1,1.1,6c-0.4,3-1.6,4.1-4.4,4.1h-1.3l-0.1-1.6l-0.8,5.4H-80z M-74.3,350.7l-1.8,12.3h0.7
					c1.4,0,1.8-0.3,2-1.7c0.2-1.2-0.3-3-1.5-4.9l2.9-5.7H-74.3z M-64.2,365c-0.8-1.4-1.4-3-1.7-5.1h-1l-0.9,6.4L-64.2,365z
					 M-65.6,350.7l-0.3,1.8h6.5l0.3-1.8H-65.6z M-66.5,357.1h6.5l0.3-1.7h-6.5L-66.5,357.1z M-62.1,362.2c1.2-0.7,2.4-1.5,3.4-2.3
					h-4.2C-62.7,360.8-62.4,361.5-62.1,362.2z M-53.7,369.1l3-20.6h9.2l-2.8,19.4h-6l-0.2,1.2H-53.7z M-30.4,347.2l-0.6,4.3h2.4
					l-0.5,3.4h-2.4l-1.7,11.6c-0.4,2.9-1.5,3.8-4.9,3.8h-3.2l-0.2-3.4h3c1.7,0,1.8-0.2,2-1.4L-35,355h-7.2l0.5-3.4h7.2l0.6-4.3
					H-30.4z M-39.7,363.3c-0.7-1.7-2-5-2.6-6.3l3-1.5c0.6,1.3,2.1,4.8,2.7,6.3L-39.7,363.3z M-49.9,364.5h2.9l0.7-4.7h-2.9
					L-49.9,364.5z M-48.1,352l-0.7,4.7h2.9l0.7-4.7H-48.1z M-10.1,365.4c-0.1-0.3-0.1-0.6-0.2-1c-1.7,0.1-5.3,0.5-6.7,0.8l-0.4-2.2
					l0,0.3h-2.8l1.7-12h-3.7l-1.7,12.1h-2.8l2.2-15.1h9.3l-0.7,4.9c1.4-2,2.7-4.2,3.6-6.3l2.9,0.7c-0.3,0.8-0.7,1.6-1.1,2.4h7.7
					c-0.1,0.7-2.6,15.5-2.8,16.5c-0.4,2.7-1.8,3.7-4.5,3.7h-3.1l-0.2-3.1h2.7c1.8,0,2.1-0.2,2.3-1.8c0-0.1,0.1-0.2,0.1-0.4
					L-10.1,365.4z M-19.7,369.8c-0.6-0.9-1.6-2.4-2.5-3.7c-1,1.6-2.5,3-4.8,4.7l-1.8-2.3c3.9-2.4,5.3-4.4,5.9-8.7l1-7.2h2.6
					l-1.1,7.9c-0.1,0.8-0.3,1.6-0.5,2.3c1.2,1.4,2.9,3.7,3.7,4.8L-19.7,369.8z M-14.7,356.2l-1.6-1l-1,6.8c0.2-0.2,0.5-0.5,0.7-0.8
					c0.8-1.2,2.7-4.8,3.6-7.1l2.8,0.8c-0.4,0.9-0.9,1.9-1.4,2.9l2.4-0.9l1.2,4.8c0.6-3.4,1.3-7.9,1.4-8.6h-5.9
					C-13.2,354.2-13.9,355.2-14.7,356.2z M-11.8,358.3c-0.8,1.6-1.7,3-2.1,3.6l2.9-0.3L-11.8,358.3z"/>
			</g>
			<g>
				<path id="path-45_1_" class="st50" d="M-64,368.1c-0.7,0.2-4.9,1.9-6.9,2.7l-1-2.9c0.9-0.3,0.9-0.6,1-1.4l2.7-18.6h12.6l-1.7,12
					h-0.6l1.3,1.9c-1.3,0.9-2.7,1.8-4,2.6c1,1.1,2.4,2.1,4.3,2.9l-2.4,2.7c-2.4-1.4-4.1-2.8-5.3-4.7L-64,368.1z M-80,369.8l3.2-22
					h8.4l-0.4,2.9l-2.8,5.2c1,2.1,1.4,4.1,1.1,6c-0.4,3-1.6,4.1-4.4,4.1h-1.3l-0.1-1.6l-0.8,5.4H-80z M-74.3,350.7l-1.8,12.3h0.7
					c1.4,0,1.8-0.3,2-1.7c0.2-1.2-0.3-3-1.5-4.9l2.9-5.7H-74.3z M-64.2,365c-0.8-1.4-1.4-3-1.7-5.1h-1l-0.9,6.4L-64.2,365z
					 M-65.6,350.7l-0.3,1.8h6.5l0.3-1.8H-65.6z M-66.5,357.1h6.5l0.3-1.7h-6.5L-66.5,357.1z M-62.1,362.2c1.2-0.7,2.4-1.5,3.4-2.3
					h-4.2C-62.7,360.8-62.4,361.5-62.1,362.2z M-53.7,369.1l3-20.6h9.2l-2.8,19.4h-6l-0.2,1.2H-53.7z M-30.4,347.2l-0.6,4.3h2.4
					l-0.5,3.4h-2.4l-1.7,11.6c-0.4,2.9-1.5,3.8-4.9,3.8h-3.2l-0.2-3.4h3c1.7,0,1.8-0.2,2-1.4L-35,355h-7.2l0.5-3.4h7.2l0.6-4.3
					H-30.4z M-39.7,363.3c-0.7-1.7-2-5-2.6-6.3l3-1.5c0.6,1.3,2.1,4.8,2.7,6.3L-39.7,363.3z M-49.9,364.5h2.9l0.7-4.7h-2.9
					L-49.9,364.5z M-48.1,352l-0.7,4.7h2.9l0.7-4.7H-48.1z M-10.1,365.4c-0.1-0.3-0.1-0.6-0.2-1c-1.7,0.1-5.3,0.5-6.7,0.8l-0.4-2.2
					l0,0.3h-2.8l1.7-12h-3.7l-1.7,12.1h-2.8l2.2-15.1h9.3l-0.7,4.9c1.4-2,2.7-4.2,3.6-6.3l2.9,0.7c-0.3,0.8-0.7,1.6-1.1,2.4h7.7
					c-0.1,0.7-2.6,15.5-2.8,16.5c-0.4,2.7-1.8,3.7-4.5,3.7h-3.1l-0.2-3.1h2.7c1.8,0,2.1-0.2,2.3-1.8c0-0.1,0.1-0.2,0.1-0.4
					L-10.1,365.4z M-19.7,369.8c-0.6-0.9-1.6-2.4-2.5-3.7c-1,1.6-2.5,3-4.8,4.7l-1.8-2.3c3.9-2.4,5.3-4.4,5.9-8.7l1-7.2h2.6
					l-1.1,7.9c-0.1,0.8-0.3,1.6-0.5,2.3c1.2,1.4,2.9,3.7,3.7,4.8L-19.7,369.8z M-14.7,356.2l-1.6-1l-1,6.8c0.2-0.2,0.5-0.5,0.7-0.8
					c0.8-1.2,2.7-4.8,3.6-7.1l2.8,0.8c-0.4,0.9-0.9,1.9-1.4,2.9l2.4-0.9l1.2,4.8c0.6-3.4,1.3-7.9,1.4-8.6h-5.9
					C-13.2,354.2-13.9,355.2-14.7,356.2z M-11.8,358.3c-0.8,1.6-1.7,3-2.1,3.6l2.9-0.3L-11.8,358.3z"/>
			</g>
			<g>
				
					<linearGradient id="path-45_3_" gradientUnits="userSpaceOnUse" x1="-460.592" y1="791.7617" x2="-461.8503" y2="791.9583" gradientTransform="matrix(77.0746 0 0 -23.894 35497.5313 19279.0918)">
					<stop  offset="0" style="stop-color:#C70000"/>
					<stop  offset="1" style="stop-color:#FF6834"/>
				</linearGradient>
				<path id="path-45_2_" class="st51" d="M-64,368.1c-0.7,0.2-4.9,1.9-6.9,2.7l-1-2.9c0.9-0.3,0.9-0.6,1-1.4l2.7-18.6h12.6l-1.7,12
					h-0.6l1.3,1.9c-1.3,0.9-2.7,1.8-4,2.6c1,1.1,2.4,2.1,4.3,2.9l-2.4,2.7c-2.4-1.4-4.1-2.8-5.3-4.7L-64,368.1z M-80,369.8l3.2-22
					h8.4l-0.4,2.9l-2.8,5.2c1,2.1,1.4,4.1,1.1,6c-0.4,3-1.6,4.1-4.4,4.1h-1.3l-0.1-1.6l-0.8,5.4H-80z M-74.3,350.7l-1.8,12.3h0.7
					c1.4,0,1.8-0.3,2-1.7c0.2-1.2-0.3-3-1.5-4.9l2.9-5.7H-74.3z M-64.2,365c-0.8-1.4-1.4-3-1.7-5.1h-1l-0.9,6.4L-64.2,365z
					 M-65.6,350.7l-0.3,1.8h6.5l0.3-1.8H-65.6z M-66.5,357.1h6.5l0.3-1.7h-6.5L-66.5,357.1z M-62.1,362.2c1.2-0.7,2.4-1.5,3.4-2.3
					h-4.2C-62.7,360.8-62.4,361.5-62.1,362.2z M-53.7,369.1l3-20.6h9.2l-2.8,19.4h-6l-0.2,1.2H-53.7z M-30.4,347.2l-0.6,4.3h2.4
					l-0.5,3.4h-2.4l-1.7,11.6c-0.4,2.9-1.5,3.8-4.9,3.8h-3.2l-0.2-3.4h3c1.7,0,1.8-0.2,2-1.4L-35,355h-7.2l0.5-3.4h7.2l0.6-4.3
					H-30.4z M-39.7,363.3c-0.7-1.7-2-5-2.6-6.3l3-1.5c0.6,1.3,2.1,4.8,2.7,6.3L-39.7,363.3z M-49.9,364.5h2.9l0.7-4.7h-2.9
					L-49.9,364.5z M-48.1,352l-0.7,4.7h2.9l0.7-4.7H-48.1z M-10.1,365.4c-0.1-0.3-0.1-0.6-0.2-1c-1.7,0.1-5.3,0.5-6.7,0.8l-0.4-2.2
					l0,0.3h-2.8l1.7-12h-3.7l-1.7,12.1h-2.8l2.2-15.1h9.3l-0.7,4.9c1.4-2,2.7-4.2,3.6-6.3l2.9,0.7c-0.3,0.8-0.7,1.6-1.1,2.4h7.7
					c-0.1,0.7-2.6,15.5-2.8,16.5c-0.4,2.7-1.8,3.7-4.5,3.7h-3.1l-0.2-3.1h2.7c1.8,0,2.1-0.2,2.3-1.8c0-0.1,0.1-0.2,0.1-0.4
					L-10.1,365.4z M-19.7,369.8c-0.6-0.9-1.6-2.4-2.5-3.7c-1,1.6-2.5,3-4.8,4.7l-1.8-2.3c3.9-2.4,5.3-4.4,5.9-8.7l1-7.2h2.6
					l-1.1,7.9c-0.1,0.8-0.3,1.6-0.5,2.3c1.2,1.4,2.9,3.7,3.7,4.8L-19.7,369.8z M-14.7,356.2l-1.6-1l-1,6.8c0.2-0.2,0.5-0.5,0.7-0.8
					c0.8-1.2,2.7-4.8,3.6-7.1l2.8,0.8c-0.4,0.9-0.9,1.9-1.4,2.9l2.4-0.9l1.2,4.8c0.6-3.4,1.3-7.9,1.4-8.6h-5.9
					C-13.2,354.2-13.9,355.2-14.7,356.2z M-11.8,358.3c-0.8,1.6-1.7,3-2.1,3.6l2.9-0.3L-11.8,358.3z"/>
			</g>
		</g>
		
			<linearGradient id="Light-icon_1_" gradientUnits="userSpaceOnUse" x1="-455.8495" y1="791.1624" x2="-456.3119" y2="793.319" gradientTransform="matrix(17 0 0 -25 7656 20172.3906)">
			<stop  offset="0" style="stop-color:#F30016"/>
			<stop  offset="1" style="stop-color:#FF6834"/>
		</linearGradient>
		<polygon id="Light-icon" class="st52" points="-90,358.9 -97.7,358.6 -90.1,348.1 -99.2,347.9 -107,360.9 -99.9,361.1 
			-106.3,372.9 		"/>
	</g>
	<circle id="椭圆形_2_" class="st53" cx="227" cy="440.9" r="12"/>
	<circle id="椭圆形-copy" class="st53" cx="227" cy="464.9" r="12"/>
	<path id="路径-7" class="st54" d="M221.7,466.9c-0.4,0-0.7-0.4-0.7-1c0-0.6,0.3-1,0.7-1h9.6c0.4,0,0.7,0.4,0.7,1
		c0,0.6-0.3,1-0.7,1H221.7z"/>
	<path id="路径-2" class="st54" d="M222.2,436.2c-0.3-0.3-0.3-0.8,0-1.1c0.3-0.3,0.7-0.3,1,0l8.6,9.4c0.3,0.3,0.3,0.8,0,1.1
		c-0.3,0.3-0.7,0.3-1,0L222.2,436.2z"/>
	<path id="路径-2_1_" class="st54" d="M231.8,436.2c0.3-0.3,0.3-0.8,0-1.1c-0.3-0.3-0.7-0.3-1,0l-8.6,9.4c-0.3,0.3-0.3,0.8,0,1.1
		c0.3,0.3,0.7,0.3,1,0L231.8,436.2z"/>
	<g id="编组" transform="translate(363.000000, 0.000000)">
		<rect id="Rectangle-26-Copy-2" x="-108" y="344.9" class="st43" width="16" height="16"/>
		<path id="Path" class="st55" d="M-98.3,352.6l-5.5-5.5c-0.3-0.3-0.3-0.7,0-0.9c0.3-0.3,0.7-0.3,0.9,0l6,6c0.3,0.3,0.3,0.7,0,0.9
			l-6,6c-0.3,0.3-0.7,0.3-0.9,0c-0.3-0.3-0.3-0.7,0-0.9L-98.3,352.6z"/>
	</g>
</g>
</svg>
