<?xml version="1.0" encoding="UTF-8"?>
<svg width="70px" height="14px" viewBox="0 0 70 14" version="1.1" xmlns="http://www.w3.org/2000/svg" xmlns:xlink="http://www.w3.org/1999/xlink">
    <title>logo_honor</title>
    <defs>
        <polygon id="path-1" points="0.0478227273 0.153342741 13.5769136 0.153342741 13.5769136 13.7226594 0.0478227273 13.7226594"></polygon>
        <polygon id="path-3" points="0.0903954545 0.153342741 13.6194864 0.153342741 13.6194864 13.7226594 0.0903954545 13.7226594"></polygon>
        <polygon id="path-5" points="0.0852409091 0.0157331886 10.3781364 0.0157331886 10.3781364 13.239909 0.0852409091 13.239909"></polygon>
    </defs>
    <g id="logo_honor" stroke="none" stroke-width="1" fill="none" fill-rule="evenodd">
        <g id="荣耀logo">
            <polygon id="Fill-1" fill="#000000" points="7.57460455 0.341119783 7.57460455 5.70125438 2.34862727 5.70125438 2.34862727 0.341119783 -3.18181818e-05 0.341119783 -3.18181818e-05 13.5652956 2.34862727 13.5652956 2.34862727 8.0569244 7.57460455 8.0569244 7.57460455 13.5652956 9.92326364 13.5652956 9.92326364 0.341119783"></polygon>
            <g id="编组" transform="translate(13.045455, 0.006287)">
                <g>
                    <mask id="mask-2" fill="white">
                        <use xlink:href="#path-1"></use>
                    </mask>
                    <g id="Clip-3"></g>
                    <path d="M6.81236818,11.3670532 C4.37350455,11.3670532 2.39648182,9.38412896 2.39648182,6.93798513 C2.39648182,4.4918413 4.37350455,2.50875745 6.81236818,2.50875745 C9.25123182,2.50875745 11.2282545,4.4918413 11.2282545,6.93798513 C11.2282545,9.38412896 9.25123182,11.3670532 6.81236818,11.3670532 M6.81236818,0.153247001 C3.07643636,0.153247001 0.0478227273,3.19090128 0.0478227273,6.93798513 C0.0478227273,10.685069 3.07643636,13.7227233 6.81236818,13.7227233 C10.5483,13.7227233 13.5769136,10.685069 13.5769136,6.93798513 C13.5769136,3.19090128 10.5483,0.153247001 6.81236818,0.153247001" id="Fill-2" fill="#000000" mask="url(#mask-2)"></path>
                </g>
                <g transform="translate(29.750000, 0.000000)">
                    <mask id="mask-4" fill="white">
                        <use xlink:href="#path-3"></use>
                    </mask>
                    <g id="Clip-5"></g>
                    <path d="M6.85494091,11.3670532 C4.41607727,11.3670532 2.43905455,9.38412896 2.43905455,6.93798513 C2.43905455,4.4918413 4.41607727,2.50875745 6.85494091,2.50875745 C9.29380455,2.50875745 11.2709864,4.4918413 11.2709864,6.93798513 C11.2709864,9.38412896 9.29380455,11.3670532 6.85494091,11.3670532 M6.85494091,0.153247001 C3.11916818,0.153247001 0.0903954545,3.19090128 0.0903954545,6.93798513 C0.0903954545,10.685069 3.11916818,13.7227233 6.85494091,13.7227233 C10.5908727,13.7227233 13.6194864,10.685069 13.6194864,6.93798513 C13.6194864,3.19090128 10.5908727,0.153247001 6.85494091,0.153247001" id="Fill-4" fill="#000000" mask="url(#mask-4)"></path>
                </g>
                <g transform="translate(46.454545, 0.319132)">
                    <mask id="mask-6" fill="white">
                        <use xlink:href="#path-5"></use>
                    </mask>
                    <g id="Clip-7"></g>
                    <path d="M5.04824091,6.26624499 L2.43358182,6.26624499 L2.43358182,2.37124364 L5.04887727,2.37124364 C6.12083182,2.37156277 6.98978636,3.24343034 6.98978636,4.31874431 C6.98978636,5.39421786 6.12051364,6.26624499 5.04824091,6.26624499 Z M6.37012727,8.41878773 C8.10167273,7.86525395 9.35626364,6.23927837 9.35626364,4.31874431 C9.35626364,1.94616033 7.44176364,0.0224349525 5.07783182,0.0160523202 L5.07783182,0.0157331886 L0.0852409091,0.0157331886 L0.0852409091,13.239909 L2.43358182,13.239909 L2.43358182,7.35480293 L7.32626364,13.239909 L10.3782636,13.239909 L6.37012727,8.41878773 Z" id="Fill-6" fill="#000000" mask="url(#mask-6)"></path>
                </g>
                <polygon id="Fill-8" fill="#000000" points="24.3216909 8.54816369 18.6193955 0.294941438 16.7470545 0.294941438 16.7470545 13.5191173 19.0957136 13.5191173 19.0957136 5.22648228 24.8253727 13.5191173 26.67035 13.5191173 26.67035 0.294941438 24.3216909 0.294941438"></polygon>
            </g>
        </g>
    </g>
</svg>