<?xml version="1.0" encoding="UTF-8"?>
<svg width="96px" height="96px" viewBox="0 0 96 96" version="1.1" xmlns="http://www.w3.org/2000/svg" xmlns:xlink="http://www.w3.org/1999/xlink">
    <!-- Generator: Sketch 62 (91390) - https://sketch.com -->
    <title>ic_huaweiid_list_eye</title>
    <desc>Created with Sketch.</desc>
    <g id="ic_huaweiid_list_eye" stroke="none" stroke-width="1" fill="none" fill-rule="evenodd">
        <g id="bg"></g>
        <g id="ic/about/ic_about-copy-57" stroke="#000000" stroke-width="6">
            <g id="Group" transform="translate(4.000000, 20.000000)">
                <path d="M84.9338908,28.1216274 C81.0850827,35.5103989 75.0901728,41.7138534 67.9069119,46.0981238 C60.7945593,50.4391157 52.5091284,53 44,53 C35.4939523,53 27.2115361,50.4360287 20.100416,46.0932381 C12.9042305,41.6984978 6.89920951,35.4786956 3.09302482,28.2060628 C3.08046485,28.1772858 3.0681958,28.1493637 3.05620424,28.1222619 C3.04878223,28.0791809 3.0405771,28.036254 3.0315051,27.9934998 C7.01227865,20.385677 12.9687161,14.2489345 20.0932372,9.90124516 C27.2060529,5.56069898 35.491183,3 44,3 C52.5061953,3 60.7887564,5.56405565 67.8993284,9.9068756 C75.1037518,14.3070159 81.1134001,20.5366317 84.9159273,27.8205122 C84.9281131,27.8532904 84.94028,27.8852126 84.9524471,27.9163319 C84.9463338,27.9897635 84.940061,28.0576736 84.9338908,28.1216274 Z" id="Fill-7"></path>
            </g>
        </g>
        <g id="编组" transform="translate(30.000000, 30.000000)" fill="#000000">
            <path d="M18,0 C27.9411255,0 36,8.0588745 36,18 C36,27.9411255 27.9411255,36 18,36 C8.0588745,36 0,27.9411255 0,18 C0,8.0588745 8.0588745,0 18,0 Z M22.0032264,8.72739173 C21.852669,7.0773922 20.3930292,5.86185416 18.7430296,6.01241155 C11.2629025,6.69495017 7,10.8116671 7,17.7064691 C7,19.3633234 8.34314575,20.7064691 10,20.7064691 C11.6568542,20.7064691 13,19.3633234 13,17.7064691 C13,14.0895113 14.7475227,12.4019155 19.2882462,11.9875884 C20.9382457,11.8370311 22.1537837,10.3773913 22.0032264,8.72739173 Z" id="形状结合"></path>
        </g>
    </g>
</svg>